<svg width="39" height="49" viewBox="0 0 39 49" fill="none" xmlns="http://www.w3.org/2000/svg">
<circle cx="19.5" cy="28.5" r="19.5" fill="white"/>
<path d="M12.0899 36C11.7379 36 11.4579 35.896 11.2499 35.688C11.0579 35.48 10.9619 35.2 10.9619 34.848V20.112C10.9619 19.744 11.0579 19.464 11.2499 19.272C11.4419 19.08 11.7139 18.984 12.0659 18.984C12.4339 18.984 12.7139 19.08 12.9059 19.272C13.0979 19.464 13.1939 19.744 13.1939 20.112V34.08H20.8259C21.1619 34.08 21.4099 34.16 21.5699 34.32C21.7459 34.48 21.8339 34.712 21.8339 35.016C21.8339 35.336 21.7459 35.584 21.5699 35.76C21.4099 35.92 21.1619 36 20.8259 36H12.0899Z" fill="black"/>
<path d="M26.5703 36.18C25.7543 36.18 25.0943 35.928 24.5903 35.424C24.1103 34.92 23.8703 34.272 23.8703 33.48C23.8703 32.712 24.1103 32.088 24.5903 31.608C25.0943 31.104 25.7543 30.852 26.5703 30.852C27.4103 30.852 28.0583 31.104 28.5143 31.608C28.9943 32.088 29.2343 32.712 29.2343 33.48C29.2343 34.272 28.9943 34.92 28.5143 35.424C28.0583 35.928 27.4103 36.18 26.5703 36.18Z" fill="#40916C"/>
</svg>
