<?xml version="1.0" encoding="UTF-8" standalone="no"?>
<!-- Created with Inkscape (http://www.inkscape.org/) -->
<svg
   xmlns:svg="http://www.w3.org/2000/svg"
   xmlns="http://www.w3.org/2000/svg"
   version="1.0"
   viewBox="0 0 1000.0001 997.87921"
   width="316"
   height="316"
   id="svg2">
  <defs
     id="defs4" />
  <g
     transform="translate(-198.75755,241.88587)"
     id="layer1">
    <path
       d="M 198.75755,-241.88587 L 198.75755,755.99337 L 1198.7576,755.99337 L 1198.7576,-241.88587 L 198.75755,-241.88587 z M 489.98761,265.91103 L 490.42424,574.85565 C 491.97777,638.00828 650.56402,642.60445 675.55398,478.42351 C 608.36236,481.04479 553.51687,516.71072 510.94569,582.5278 L 510.94569,322.23588 C 538.87605,366.93101 566.19705,413.39732 673.37084,429.64606 C 670.60947,375.7575 652.19454,321.858 570.95068,267.96942 L 883.51304,267.96942 C 1012.6785,267.96662 1067.1287,288.35541 1071.8863,348.30874 C 1077.4373,418.26185 1006.9305,443.45892 850.51653,453.09916 C 850.51653,453.09912 989.1234,451.40545 1038.7027,499.56872 C 1070.2163,530.18227 1070.2548,567.31842 1073.1338,641.03579 L 884.76054,642.09616 C 885.05995,573.32892 885.52565,547.26814 846.64927,522.02381 C 807.5834,496.65642 778.87332,483.64321 722.95915,479.79577 C 730.11769,550.45381 762.68947,595.74447 825.94068,641.47241 L 499.8429,640.22491 C 415.73166,639.55359 323.7808,609.63551 323.63282,504.99537 L 323.44569,267.15854 L 489.98761,265.91103 z M 836.7316,291.04826 C 784.08186,292.26944 719.92723,372.01429 723.70765,428.21143 C 798.78893,431.22596 923.58274,353.97018 870.35186,304.02231 C 860.39709,294.68149 848.88154,290.76644 836.7316,291.04826 z "
       style="opacity:1;fill:#06376c;fill-opacity:1;stroke:none;stroke-width:1.06016958;stroke-linecap:round;stroke-linejoin:round;stroke-miterlimit:4;stroke-dasharray:none;stroke-dashoffset:0;stroke-opacity:1"
       id="rect2188" />
  </g>
</svg>
